<svg width="31" height="31" viewBox="0 0 31 31" fill="none" xmlns="http://www.w3.org/2000/svg">
<path d="M16.7096 27.0782V27.3613L16.9906 27.3263C22.8692 26.5932 27.418 21.5789 27.418 15.5018C27.418 8.9204 22.0827 3.58512 15.5013 3.58512C8.91991 3.58512 3.58464 8.9204 3.58464 15.5018C3.58464 21.5789 8.13342 26.5932 14.012 27.3263L14.293 27.3613V27.0782V18.4185V18.1685H14.043H11.1263C10.459 18.1685 9.91797 17.6275 9.91797 16.9601C9.91797 16.2928 10.459 15.7518 11.1263 15.7518H14.043H14.293V15.5018V12.5851C14.293 10.307 16.1397 8.46012 18.418 8.46012H19.1471C19.8145 8.46012 20.3555 9.00112 20.3555 9.66846C20.3555 10.3358 19.8145 10.8768 19.1471 10.8768H18.418C17.4745 10.8768 16.7096 11.6416 16.7096 12.5851V15.5018V15.7518L16.9596 15.7518H19.8763C20.5437 15.7518 21.0846 16.2928 21.0846 16.9601C21.0846 17.6275 20.5437 18.1685 19.8763 18.1685H16.9596H16.7096V18.4185V27.0782ZM29.8346 15.5018C29.8346 23.4178 23.4173 29.8351 15.5013 29.8351C7.58522 29.8351 1.16797 23.4178 1.16797 15.5018C1.16797 7.58571 7.58522 1.16846 15.5013 1.16846C23.4173 1.16846 29.8346 7.58571 29.8346 15.5018Z" fill="#333333" stroke="#F7F7F7" stroke-width="0.5"/>
</svg>
