<svg width="30" height="26" viewBox="0 0 30 26" fill="none" xmlns="http://www.w3.org/2000/svg">
<path d="M2.00108 11.1918L2.00109 11.1918L26.939 0.69158C28.3442 0.099906 29.8507 1.28815 29.6025 2.79254L26.2937 22.8544C26.0016 24.6254 24.0594 25.6345 22.4415 24.7557C20.9588 23.9504 18.7623 22.7126 16.785 21.4206C15.7974 20.7752 14.8451 20.1039 14.0572 19.4559L14.0572 19.4559C13.5417 19.032 13.0423 18.5752 12.6491 18.1048L12.5836 18.0265L12.482 18.0164C11.023 17.8717 9.18743 17.3579 7.48585 16.7969C5.41682 16.1147 3.35186 15.2947 2.00105 14.7347C0.389752 14.0668 0.453767 11.8432 2.00108 11.1918ZM4.60388 12.718L4.03706 12.9566L4.60964 13.1811C5.70741 13.6115 6.97782 14.0847 8.24254 14.5018L8.24256 14.5018C9.8825 15.0424 11.3918 15.4461 12.4857 15.586L12.6074 15.6016L12.6942 15.5148L19.0208 9.18824L18.844 9.01147L19.0208 9.18824C19.4927 8.71635 20.2578 8.71635 20.7296 9.18824L20.9064 9.01147L20.7296 9.18824C21.2015 9.66009 21.2015 10.4252 20.7296 10.8971L14.953 16.6738L14.7717 16.8551L14.9575 17.0318C15.1341 17.1996 15.3447 17.3859 15.5921 17.5894L15.5921 17.5894C16.2854 18.1595 17.1574 18.777 18.1069 19.3976L18.1069 19.3976C19.9843 20.6242 22.0901 21.8138 23.5486 22.6069L23.8575 22.7749L23.9147 22.428L27.003 3.70253L27.0767 3.2557L26.6593 3.43144L4.60388 12.718Z" fill="#333333" stroke="#F7F7F7" stroke-width="0.5"/>
</svg>
