<svg width="22" height="22" viewBox="0 0 22 22" fill="none" xmlns="http://www.w3.org/2000/svg">
<path d="M20.7634 19.3494L20.7635 19.3494L20.7604 19.3463L17.992 16.5794C19.5763 14.6416 20.3781 12.1773 20.2333 9.67292C20.0841 7.09169 18.941 4.66858 17.0437 2.91205C15.1465 1.15551 12.6426 0.202094 10.0575 0.251854C7.47249 0.301615 5.00718 1.35069 3.17893 3.17893C1.35069 5.00718 0.301615 7.47249 0.251854 10.0575C0.202094 12.6426 1.15551 15.1465 2.91205 17.0437C4.66858 18.941 7.09169 20.0841 9.67292 20.2333C12.177 20.3781 14.641 19.5765 16.5786 17.9927L19.3463 20.7604L19.3463 20.7604L19.3494 20.7634C19.538 20.9456 19.7907 21.0464 20.0528 21.0441C20.315 21.0418 20.5659 20.9367 20.7513 20.7513C20.9367 20.5659 21.0418 20.315 21.0441 20.0528C21.0464 19.7907 20.9456 19.538 20.7634 19.3494ZM15.907 15.907C14.4067 17.4073 12.3719 18.2501 10.2501 18.2501C8.12839 18.2501 6.09356 17.4073 4.59327 15.907C3.09298 14.4067 2.25012 12.3719 2.25012 10.2501C2.25012 8.12839 3.09298 6.09356 4.59327 4.59327C6.09356 3.09298 8.12839 2.25012 10.2501 2.25012C12.3719 2.25012 14.4067 3.09298 15.907 4.59327C17.4073 6.09356 18.2501 8.12839 18.2501 10.2501C18.2501 12.3719 17.4073 14.4067 15.907 15.907Z" fill="#E1AF93" stroke="#E1AF93" stroke-width="0.5"/>
</svg>
