<svg width="27" height="27" viewBox="0 0 27 27" fill="none" xmlns="http://www.w3.org/2000/svg">
<path d="M19.3333 0.625C23.2223 0.625 26.375 3.77767 26.375 7.66667V19.3333C26.375 23.2223 23.2223 26.375 19.3333 26.375H7.66667C3.77767 26.375 0.625 23.2223 0.625 19.3333L0.625 7.66667C0.625 3.77767 3.77767 0.625 7.66667 0.625L19.3333 0.625ZM19.3333 3.04167L7.66667 3.04167C5.11236 3.04167 3.04167 5.11236 3.04167 7.66667L3.04167 19.3333C3.04167 21.8877 5.11236 23.9583 7.66667 23.9583H19.3333C21.8877 23.9583 23.9583 21.8877 23.9583 19.3333V7.66667C23.9583 5.11236 21.8877 3.04167 19.3333 3.04167ZM13.5 7.91667C16.5835 7.91667 19.0833 10.4164 19.0833 13.5C19.0833 16.5835 16.5835 19.0833 13.5 19.0833C10.4164 19.0833 7.91667 16.5835 7.91667 13.5C7.91667 10.4164 10.4164 7.91667 13.5 7.91667ZM13.5 10.3333C11.7511 10.3333 10.3333 11.7511 10.3333 13.5C10.3333 15.2489 11.7511 16.6667 13.5 16.6667C15.2489 16.6667 16.6667 15.2489 16.6667 13.5C16.6667 11.7511 15.2489 10.3333 13.5 10.3333ZM20.0625 5.72917C20.7299 5.72917 21.2708 6.27016 21.2708 6.9375C21.2708 7.60484 20.7299 8.14583 20.0625 8.14583C19.3951 8.14583 18.8542 7.60484 18.8542 6.9375C18.8542 6.27016 19.3951 5.72917 20.0625 5.72917Z" fill="#333333" stroke="#F7F7F7" stroke-width="0.5"/>
</svg>
