<svg width="31" height="31" viewBox="0 0 31 31" fill="none" xmlns="http://www.w3.org/2000/svg">
<path d="M14.5859 11.7087L14.5859 11.7087C14.5212 11.6141 14.4555 11.517 14.389 11.4187L14.364 11.3817L14.3627 11.3799L13.8884 10.692C13.3918 9.99517 12.8268 9.3024 12.1246 8.79019C11.8992 8.6258 11.6122 8.60584 11.373 8.70836C10.0973 9.2551 9.02645 10.6348 9.07786 12.0319C9.07903 12.0638 9.08059 12.0977 9.08261 12.1336L9.10197 12.3816L9.13723 12.6739L9.19334 13.0123C9.43995 14.3157 10.1831 16.4281 12.3797 18.6248C14.5765 20.8215 16.6888 21.5646 17.9922 21.8111L18.3331 21.8677C18.3836 21.8748 18.4324 21.8812 18.4795 21.8869L18.7517 21.9138L18.9751 21.9267C20.3697 21.9767 21.7474 20.912 22.2931 19.6386C22.2931 19.6386 22.2931 19.6386 22.2931 19.6386L14.5859 11.7087ZM14.5859 11.7087C14.7865 12.002 14.7649 12.3908 14.5418 12.6581L14.4516 12.7488L13.12 13.7378L13.1199 13.7378M14.5859 11.7087L13.1199 13.7378M13.1199 13.7378C12.892 13.9071 12.8085 14.2224 12.952 14.4839L12.9521 14.484M13.1199 13.7378L12.9521 14.484M12.9521 14.484C13.2638 15.0511 13.8198 15.898 14.4631 16.5413C15.1067 17.185 15.992 17.7756 16.5946 18.1202C16.8222 18.2505 17.0954 18.207 17.2755 18.0426L17.2871 18.032M12.9521 14.484L17.2871 18.032M17.2871 18.032L17.2973 18.02M17.2871 18.032L17.2973 18.02M17.2973 18.02L17.3533 17.9543L17.3634 17.9425M17.2973 18.02L17.3634 17.9425M17.3634 17.9425L17.3719 17.9295M17.3634 17.9425L17.3719 17.9295M17.3719 17.9295L18.2434 16.602M17.3719 17.9295L18.2434 16.602M18.2434 16.602C18.499 16.2683 18.9714 16.1959 19.3158 16.434C19.3159 16.4341 19.316 16.4341 19.3161 16.4342L20.1048 16.984C20.1052 16.9842 20.1055 16.9845 20.1059 16.9848L18.2434 16.602ZM8.0898 27.7725L7.99682 27.7184L7.89367 27.7488L3.47206 29.0493C2.5906 29.3086 1.76678 28.5433 1.92095 27.6706L1.95564 27.5247L3.25425 23.1094L3.28533 23.0038L3.22833 22.9095C1.92052 20.747 1.16797 18.2106 1.16797 15.5018C1.16797 7.58571 7.58522 1.16846 15.5013 1.16846C23.4173 1.16846 29.8346 7.58571 29.8346 15.5018C29.8346 23.4178 23.4173 29.8351 15.5013 29.8351C12.9738 29.8351 10.5965 29.18 8.53296 28.0299L8.0898 27.7725ZM3.58464 15.5018C3.58464 17.8503 4.26273 20.0367 5.43336 21.8801C5.68938 22.2834 5.79829 22.7775 5.71369 23.2667L5.66122 23.4904L5.0191 25.6736L4.88978 26.1133L5.32948 25.984L7.51932 25.34C8.07742 25.1758 8.66003 25.2758 9.12296 25.5697C10.9665 26.7404 13.1528 27.4185 15.5013 27.4185C22.0827 27.4185 27.418 22.0832 27.418 15.5018C27.418 8.9204 22.0827 3.58512 15.5013 3.58512C8.91991 3.58512 3.58464 8.9204 3.58464 15.5018Z" fill="#333333" stroke="#F7F7F7" stroke-width="0.5"/>
</svg>
